<?xml version="1.0" encoding="iso-8859-1"?>
<!-- Generator: Adobe Illustrator 19.0.0, SVG Export Plug-In . SVG Version: 6.00 Build 0)  -->
<svg version="1.1" id="Capa_1" xmlns="http://www.w3.org/2000/svg" xmlns:xlink="http://www.w3.org/1999/xlink" x="0px" y="0px"
	 viewBox="0 0 512 512" style="enable-background:new 0 0 512 512;" xml:space="preserve">
<g>
	<g>
		<path style="fill:#E6E7E8;" d="M0,227.31L87.164,98.115c10.379-16.433,32.087-21.389,48.569-11.087l26.804,16.752
			c3.679,2.299,6.27,5.99,7.183,10.23c0.913,4.241,0.071,8.671-2.336,12.28c-4.752,7.127-14.264,9.266-21.609,4.859l-12.55-7.53
			c-4.536-2.722-10.052-3.266-15.033-1.484c-4.98,1.782-8.899,5.703-10.678,10.685L61.793,244.965L0,227.31z"/>
		<path style="fill:#E6E7E8;" d="M512,227.31L424.836,98.115c-10.379-16.433-32.087-21.389-48.569-11.087l-26.804,16.752
			c-3.679,2.299-6.27,5.99-7.183,10.23c-0.913,4.241-0.071,8.671,2.336,12.28c4.752,7.127,14.264,9.266,21.609,4.859l12.55-7.53
			c4.536-2.722,10.052-3.266,15.033-1.484c4.98,1.782,8.899,5.703,10.678,10.685l45.722,120.973L512,227.31z"/>
	</g>
	<path style="fill:#46B29D;" d="M512,227.31l0,84.929c0.036,36.526-16.859,71.006-45.746,93.36s-66.503,30.057-101.851,20.858
		c-18.085-4.707-35.455-11.827-51.641-21.168c-16.207-9.276-31.109-20.665-44.314-33.868c-3.292-3.318-7.773-5.184-12.447-5.184
		c-4.674,0-9.155,1.866-12.447,5.184c-13.206,13.202-28.108,24.591-44.314,33.868c-16.186,9.341-33.556,16.46-51.641,21.168
		c-9.793,2.597-19.883,3.904-30.014,3.888C52.55,430.079-0.023,377.273,0,312.239l0-84.929H512z"/>
	<circle style="fill:#527F72;" cx="75.034" cy="280.276" r="22.069"/>
	<g>
		<path style="fill:#E64C3C;" d="M132.414,275.862c-1.155-0.014-2.296-0.254-3.358-0.707c-1.068-0.449-2.051-1.076-2.909-1.854
			c-0.353-0.444-0.707-0.884-1.06-1.323c-0.335-0.492-0.603-1.027-0.797-1.591c-0.254-0.501-0.431-1.037-0.526-1.591
			c-0.099-0.583-0.158-1.172-0.177-1.763c0.033-2.337,0.947-4.576,2.56-6.268c0.857-0.78,1.841-1.409,2.909-1.858
			c3.294-1.331,7.063-0.604,9.626,1.858c1.611,1.693,2.525,3.931,2.56,6.268c-0.02,0.591-0.079,1.18-0.177,1.763
			c-0.098,0.553-0.277,1.089-0.53,1.591c-0.194,0.563-0.462,1.098-0.797,1.591c-0.349,0.44-0.703,0.879-1.056,1.323
			C136.988,274.913,134.75,275.827,132.414,275.862z"/>
		<path style="fill:#E64C3C;" d="M459.034,267.034h-88.276c-4.875,0-8.828-3.952-8.828-8.828s3.952-8.828,8.828-8.828h88.276
			c4.875,0,8.828,3.952,8.828,8.828S463.91,267.034,459.034,267.034z"/>
	</g>
	<path style="fill:#B0D3F0;" d="M335.448,267.034h-17.655c-4.875,0-8.828-3.952-8.828-8.828s3.952-8.828,8.828-8.828h17.655
		c4.875,0,8.828,3.952,8.828,8.828S340.324,267.034,335.448,267.034z"/>
	<path style="fill:#E64C3C;" d="M353.103,302.345h-35.31c-4.875,0-8.828-3.952-8.828-8.828c0-4.875,3.952-8.828,8.828-8.828h35.31
		c4.875,0,8.828,3.952,8.828,8.828C361.931,298.393,357.979,302.345,353.103,302.345z"/>
	<g>
		<path style="fill:#65DDB9;" d="M406.069,302.345h-17.655c-4.875,0-8.828-3.952-8.828-8.828c0-4.875,3.952-8.828,8.828-8.828
			h17.655c4.875,0,8.828,3.952,8.828,8.828C414.897,298.393,410.944,302.345,406.069,302.345z"/>
		<path style="fill:#65DDB9;" d="M459.034,302.345h-17.655c-4.875,0-8.828-3.952-8.828-8.828c0-4.875,3.952-8.828,8.828-8.828
			h17.655c4.875,0,8.828,3.952,8.828,8.828C467.862,298.393,463.91,302.345,459.034,302.345z"/>
	</g>
	<path style="fill:#B0D3F0;" d="M423.724,337.655H317.793c-4.875,0-8.828-3.952-8.828-8.828s3.952-8.828,8.828-8.828h105.931
		c4.875,0,8.828,3.952,8.828,8.828S428.599,337.655,423.724,337.655z"/>
	<path style="fill:#E64C3C;" d="M459.034,337.655c-2.337-0.035-4.575-0.949-6.268-2.56c-0.78-0.859-1.409-1.844-1.858-2.914
		c-0.451-1.061-0.69-2.201-0.702-3.354c0-4.875,3.952-8.828,8.828-8.828s8.828,3.952,8.828,8.828
		c-0.014,1.153-0.254,2.293-0.707,3.353c-0.449,1.069-1.076,2.054-1.854,2.914C463.608,336.705,461.371,337.62,459.034,337.655z"/>
</g>
<g>
</g>
<g>
</g>
<g>
</g>
<g>
</g>
<g>
</g>
<g>
</g>
<g>
</g>
<g>
</g>
<g>
</g>
<g>
</g>
<g>
</g>
<g>
</g>
<g>
</g>
<g>
</g>
<g>
</g>
</svg>
